<?xml version="1.0" standalone="no"?>
<!DOCTYPE svg PUBLIC "-//W3C//DTD SVG 20010904//EN"
 "http://www.w3.org/TR/2001/REC-SVG-20010904/DTD/svg10.dtd">
<svg version="1.0" xmlns="http://www.w3.org/2000/svg"
 width="767.000000pt" height="844.000000pt" viewBox="0 0 767.000000 844.000000"
 preserveAspectRatio="xMidYMid meet">
<metadata>
Created by potrace 1.16, written by Peter Selinger 2001-2019
</metadata>
<g transform="translate(0.000000,844.000000) scale(0.100000,-0.100000)"
fill="#000000" stroke="none">
<path d="M2050 8393 c0 -5 -18 -8 -40 -6 -22 1 -40 -1 -40 -5 0 -7 -47 -14
-102 -15 -16 -1 -28 -5 -28 -10 0 -5 -7 -4 -16 3 -12 11 -15 11 -12 1 2 -8 -5
-15 -14 -16 -12 -2 -18 3 -18 15 0 10 -7 20 -15 24 -8 3 -15 1 -15 -4 0 -6 5
-10 10 -10 6 0 10 -9 10 -21 0 -15 -5 -19 -15 -15 -8 3 -15 1 -15 -4 0 -6 -9
-10 -20 -10 -11 0 -20 -5 -20 -11 0 -6 -7 -9 -15 -5 -9 3 -15 0 -15 -9 0 -18
-12 -19 -29 -2 -11 10 -13 9 -8 -5 9 -26 -8 -30 -28 -8 -10 12 -13 20 -7 20 7
0 12 4 12 9 0 5 -11 4 -25 -2 -14 -7 -25 -15 -25 -19 0 -5 -5 -8 -10 -8 -24 0
-107 -111 -96 -129 3 -5 -1 -11 -9 -15 -8 -3 -15 -14 -15 -24 0 -10 -5 -23
-12 -30 -9 -9 -9 -15 1 -24 11 -10 14 -10 18 0 3 6 12 12 21 12 18 1 52 23 52
34 0 3 -11 4 -24 0 -24 -6 -24 -5 -14 35 6 23 14 41 19 41 5 0 5 8 2 17 -5 13
-2 15 12 10 15 -6 16 -5 5 8 -10 13 -9 15 8 15 23 0 42 -22 24 -28 -6 -2 -8
-10 -5 -18 3 -9 -1 -14 -12 -14 -14 0 -15 -3 -5 -15 7 -8 10 -24 7 -35 -5 -18
-2 -20 16 -14 12 4 30 8 40 8 9 0 17 4 17 9 0 4 6 7 13 5 6 -1 30 2 52 7 22 4
46 7 53 6 6 -1 12 2 12 6 0 8 42 13 127 16 24 1 43 6 43 10 0 5 5 5 10 2 6 -3
10 1 10 10 0 12 -8 14 -42 9 -24 -3 -62 -7 -85 -9 -24 -2 -51 -6 -60 -9 -10
-3 -33 -8 -51 -11 -32 -5 -33 -5 -15 13 40 41 173 94 273 110 71 11 280 4 280
-10 0 -4 7 -5 15 -2 8 4 15 1 15 -6 0 -7 7 -10 15 -6 8 3 15 1 15 -5 0 -6 9
-8 20 -4 14 4 20 2 20 -9 0 -10 6 -13 15 -10 8 4 15 1 15 -5 0 -6 7 -11 15
-11 8 0 15 -4 15 -10 0 -5 7 -7 15 -4 8 4 15 1 15 -5 0 -6 7 -11 15 -11 8 0
15 -4 15 -10 0 -5 6 -7 14 -4 7 3 16 -1 19 -9 6 -16 53 -20 79 -6 11 6 18 5
20 -3 3 -9 6 -9 12 0 4 7 2 12 -3 12 -6 0 -11 7 -11 16 0 8 -4 12 -10 9 -5 -3
-10 2 -11 12 0 16 -1 16 -9 -2 -8 -19 -9 -18 -9 4 -1 13 -4 22 -7 18 -4 -3
-12 -1 -20 6 -44 40 -46 40 -55 26 -8 -11 -9 -9 -7 6 2 12 -2 19 -9 18 -7 -2
-13 2 -13 7 0 6 -5 10 -10 10 -6 0 -28 11 -50 25 -22 14 -40 23 -40 21 0 -3
-17 1 -37 8 -21 7 -48 12 -60 11 -13 -1 -23 2 -23 6 0 5 -7 6 -15 3 -8 -4 -15
-2 -15 2 0 5 -21 9 -48 9 -26 0 -53 3 -59 8 -8 6 -13 6 -13 0z"/>
<path d="M3434 8306 c-12 -6 -39 -24 -60 -38 -22 -14 -86 -56 -144 -92 -257
-160 -290 -182 -290 -192 0 -10 150 -84 169 -84 4 0 45 -20 90 -45 l83 -44 98
60 98 59 209 -132 c114 -72 363 -229 553 -348 375 -236 634 -400 775 -491 50
-32 136 -87 192 -121 56 -35 159 -100 227 -145 l125 -81 63 33 c96 51 216 96
289 108 l67 12 -157 100 c-86 54 -205 131 -266 170 -60 39 -190 120 -288 180
-312 193 -481 298 -608 378 -68 43 -250 157 -404 252 -154 96 -307 191 -340
212 -242 152 -430 263 -444 262 -9 -1 -26 -6 -37 -13z"/>
<path d="M1970 8154 c0 -7 -23 -10 -65 -9 -36 1 -65 -1 -65 -4 0 -3 -15 -7
-33 -8 -30 -2 -52 -7 -157 -33 -25 -6 -52 -12 -60 -14 -8 -2 -22 -5 -30 -8 -8
-3 -35 -11 -60 -18 -25 -7 -51 -17 -58 -23 -11 -8 -16 -7 -23 6 -11 18 -39 23
-39 7 0 -5 -9 -10 -20 -10 -11 0 -20 -4 -20 -10 0 -5 -7 -10 -15 -10 -22 0
-18 -18 5 -25 11 -3 20 -11 20 -16 0 -14 -16 -11 -30 6 -14 16 -40 20 -40 6 0
-5 10 -16 23 -24 18 -13 19 -16 5 -16 -9 -1 -20 4 -23 9 -3 6 -14 10 -23 10
-12 0 -9 -7 13 -25 17 -13 25 -24 19 -25 -6 0 -17 7 -24 15 -7 8 -20 15 -29
15 -12 0 -10 -5 9 -20 14 -10 21 -22 17 -26 -4 -4 -16 1 -27 11 -11 10 -23 15
-27 11 -4 -4 3 -16 17 -26 14 -10 21 -22 17 -26 -4 -4 -15 0 -25 9 -10 10 -24
17 -30 17 -21 0 -13 -17 16 -30 19 -9 23 -14 13 -18 -8 -3 -17 0 -19 7 -2 6
-13 11 -25 11 -20 0 -20 -2 8 -26 29 -25 29 -25 3 -10 -34 20 -38 20 -38 1 0
-8 -4 -15 -9 -15 -5 0 -12 -13 -16 -30 -4 -16 -11 -30 -16 -30 -5 0 -9 -6 -9
-12 0 -7 -6 -25 -14 -40 -15 -29 -5 -48 26 -48 10 0 18 -4 18 -9 0 -6 -12 -6
-31 1 -16 6 -32 9 -34 7 -2 -2 -12 -39 -23 -81 -16 -64 -19 -103 -17 -220 3
-124 7 -178 15 -198 1 -3 2 -8 1 -12 0 -3 6 -28 14 -55 21 -73 29 -131 29
-208 0 -94 -11 -148 -29 -141 -8 3 -17 1 -20 -4 -4 -6 -1 -10 4 -10 19 0 11
-14 -40 -69 -36 -40 -52 -52 -61 -43 -8 8 -15 7 -26 -4 -8 -8 -11 -18 -8 -22
4 -3 11 0 16 8 5 8 12 11 16 7 13 -12 -29 -37 -43 -25 -9 7 -29 -7 -72 -53
-33 -34 -57 -67 -54 -72 3 -6 2 -7 -4 -4 -22 14 -75 -69 -106 -168 -59 -183
10 -370 164 -443 44 -20 119 -35 172 -33 15 1 27 -4 27 -10 0 -7 -9 -9 -21 -6
-13 3 -19 1 -16 -6 2 -7 15 -13 30 -15 18 -2 27 -10 29 -25 2 -18 12 -23 46
-28 23 -3 42 -2 42 3 0 15 101 9 116 -7 11 -11 37 -15 86 -15 l71 0 -6 35 c-4
23 -1 40 8 49 11 10 11 16 2 26 -9 10 -9 11 1 6 7 -4 24 -1 37 8 13 9 31 16
38 16 16 0 45 30 31 30 -5 1 -29 19 -54 42 l-45 40 45 -29 c84 -55 152 -84
167 -71 11 9 13 8 11 -3 -2 -8 -7 -17 -13 -21 -6 -5 -6 -8 2 -8 13 0 97 123
108 158 6 19 0 30 -27 53 -18 16 -25 26 -15 23 29 -10 19 12 -20 46 -39 32
-29 31 19 -2 14 -10 33 -15 42 -12 9 3 23 1 31 -6 9 -7 18 -10 21 -7 3 3 -13
24 -37 46 -49 49 -52 38 48 184 73 106 151 223 212 320 33 50 49 67 66 67 26
0 78 37 70 51 -8 12 2 11 25 -1 16 -9 18 -8 14 5 -12 29 13 44 56 33 58 -15
98 13 143 102 l36 69 -34 12 c-19 7 -32 16 -30 20 3 4 -9 12 -25 19 -17 7 -30
16 -30 21 0 4 20 -1 44 -11 94 -42 321 -34 418 15 17 8 33 13 36 11 10 -11
-124 -67 -187 -78 -56 -9 -69 -15 -68 -29 1 -10 5 -16 9 -13 11 7 88 -35 85
-47 -4 -18 104 -69 158 -74 l50 -5 -55 13 c-30 7 -77 25 -105 40 -66 34 -44
35 26 0 45 -23 72 -28 164 -33 76 -4 124 -1 154 7 30 9 48 10 55 3 7 -7 5 -10
-5 -10 -9 0 -53 -16 -99 -36 -54 -24 -104 -38 -144 -41 -43 -3 -57 -2 -46 6
12 8 11 11 -5 16 -52 17 -147 71 -211 119 -40 30 -87 56 -108 60 -33 6 -37 5
-47 -21 -10 -26 -7 -31 41 -75 66 -59 197 -125 278 -140 78 -15 159 -1 240 40
46 24 60 27 68 17 15 -22 54 -29 54 -11 0 19 21 21 39 4 11 -10 13 -10 7 0
-16 27 27 7 220 -103 110 -63 210 -115 222 -115 12 0 22 -5 22 -11 0 -5 -5 -7
-10 -4 -6 4 -17 1 -25 -5 -8 -6 -19 -9 -25 -5 -5 3 -10 2 -10 -2 0 -5 25 -21
55 -36 65 -32 72 -28 13 7 -24 14 -38 26 -32 26 5 0 37 -16 70 -36 142 -87
229 -137 388 -223 93 -50 171 -90 173 -87 3 3 -56 36 -307 174 -97 53 -230
135 -226 139 3 3 47 -20 100 -51 52 -31 98 -56 101 -56 4 0 37 -17 73 -39 243
-140 302 -177 302 -188 0 -7 5 -13 10 -13 6 0 10 -8 10 -18 0 -24 40 -43 62
-31 16 9 66 -6 79 -24 3 -5 12 6 19 24 12 29 12 33 -6 46 -20 15 -136 79 -364
203 -74 41 -189 103 -255 139 -66 36 -134 72 -150 79 -29 14 -29 13 -11 -6 17
-20 17 -20 -3 -15 -22 6 -49 32 -42 42 6 9 -375 228 -567 326 -51 26 -91 50
-88 52 2 3 13 0 25 -6 11 -6 42 -13 70 -15 36 -3 89 -25 197 -78 167 -83 932
-497 1124 -608 69 -40 145 -84 169 -98 25 -14 41 -21 38 -15 -12 19 -145 105
-277 180 -154 87 -726 405 -835 464 -44 23 -120 64 -169 91 -49 26 -90 48 -92
48 -2 0 -36 16 -75 35 -40 19 -84 35 -98 35 -22 1 -23 2 -9 10 19 12 70 -10
350 -147 103 -51 189 -93 192 -93 3 0 50 -24 105 -54 55 -30 157 -85 228 -121
237 -124 408 -218 478 -265 88 -59 242 -149 272 -161 31 -11 30 4 -2 29 -31
25 -35 48 -4 32 11 -7 27 -9 35 -6 26 10 14 33 -28 52 -24 10 -72 42 -108 71
-35 29 -105 74 -155 101 -49 27 -171 93 -270 147 -99 54 -234 128 -300 165
-66 37 -246 135 -400 217 -154 83 -300 162 -323 177 -46 28 -49 52 -6 36 36
-14 39 -12 15 8 l-20 17 19 55 c21 58 27 150 10 150 -6 0 -8 30 -5 78 l5 77
-18 -70 c-17 -63 -47 -135 -56 -135 -2 0 -2 9 1 19 6 22 -25 36 -57 26 -13 -4
-20 -2 -20 6 0 7 -16 -14 -36 -47 -69 -115 -151 -178 -275 -210 -79 -20 -206
-14 -300 16 -35 11 -71 20 -80 20 -19 0 -32 -25 -23 -43 3 -7 -1 -4 -9 6 -8 9
-23 17 -33 17 -16 0 -17 -2 -4 -10 12 -8 12 -10 1 -10 -7 0 -42 29 -77 65 -68
69 -126 176 -159 290 -10 33 -24 65 -32 70 -21 15 -2 121 36 202 l31 64 -25
23 c-14 13 -45 34 -70 47 -55 29 -63 26 -126 -58 -47 -63 -68 -70 -66 -21 1
14 5 24 9 22 4 -3 12 5 18 17 10 17 9 20 -2 14 -7 -4 -3 2 8 12 22 18 44 54
44 70 0 4 -5 1 -10 -7 -9 -13 -10 -13 -10 0 0 40 89 80 104 48 5 -10 7 -10 12
0 5 10 9 10 20 1 11 -9 14 -8 14 5 0 20 19 21 26 1 4 -8 10 -13 14 -10 13 8 5
56 -11 67 -15 10 48 1 66 -10 5 -3 21 -6 35 -6 14 -1 25 -6 25 -13 0 -6 4 -15
9 -20 5 -4 6 -3 3 3 -12 21 21 23 35 3 13 -20 14 -20 42 6 23 21 26 28 16 40
-14 17 0 21 16 5 7 -7 16 -4 28 9 17 19 17 19 -9 17 -17 -2 -25 1 -21 9 3 8
-4 11 -20 9 -13 -1 -24 1 -24 6 0 5 -12 7 -26 5 -15 -1 -28 3 -31 11 -3 8 -9
11 -14 8 -5 -3 -9 1 -9 8 0 9 -3 9 -10 -2 -9 -13 -12 -12 -25 4 -8 11 -15 14
-15 8 0 -14 -21 -12 -32 3 -5 6 -8 6 -8 -1z m-270 -116 c0 -9 3 -9 11 -1 12
12 37 3 67 -25 12 -11 12 -15 -4 -27 -22 -17 -48 -20 -39 -5 3 6 13 10 21 10
8 0 14 5 14 11 0 7 -9 9 -22 5 -13 -3 -31 -6 -40 -6 -10 0 -25 -14 -33 -31
-18 -35 -13 -48 10 -29 28 23 27 3 -2 -39 -25 -36 -53 -54 -53 -33 0 5 -30 30
-66 56 -53 38 -63 50 -54 61 6 8 17 12 25 9 7 -3 16 -1 20 5 10 16 28 13 22
-4 -4 -8 -2 -17 4 -20 5 -4 12 1 15 9 3 9 13 16 20 16 12 0 12 -4 4 -20 -8
-16 -8 -20 4 -20 19 0 64 40 51 46 -5 2 -17 9 -25 14 -13 9 -13 11 0 20 21 14
50 12 50 -2z m-290 -152 c0 -18 23 -27 40 -16 17 11 93 -39 86 -56 -6 -16 10
-28 19 -14 9 15 27 12 20 -2 -4 -7 2 -3 12 10 23 28 37 18 17 -13 -12 -18 -12
-24 -2 -32 20 -15 79 -33 89 -27 5 3 9 -2 9 -11 0 -12 -6 -15 -20 -10 -31 10
-25 -19 11 -49 17 -14 40 -26 52 -26 12 -1 33 -7 47 -16 l25 -15 -25 7 c-31 8
-28 5 37 -40 29 -20 59 -36 67 -36 18 0 25 -20 33 -90 5 -55 4 -60 -52 -157
-31 -55 -67 -113 -80 -129 l-22 -28 -40 18 c-45 20 -101 62 -93 70 3 2 32 1
64 -3 55 -8 58 -7 73 18 9 14 27 42 39 61 13 19 26 53 29 75 7 39 5 42 -43 83
-28 23 -57 42 -64 42 -8 0 -19 5 -25 11 -6 6 -21 9 -34 7 -20 -2 -24 -9 -24
-40 0 -20 -6 -43 -12 -49 -7 -7 -13 -19 -13 -26 0 -7 -4 -13 -10 -13 -16 0
-12 15 11 44 11 14 17 26 12 26 -14 -1 -43 -27 -43 -39 0 -6 -4 -11 -10 -11
-5 0 -10 -5 -10 -10 0 -6 -9 -20 -19 -31 -14 -15 -18 -31 -15 -57 3 -22 0 -38
-8 -43 -9 -6 -6 -14 11 -33 20 -21 22 -28 11 -41 -16 -20 -24 -13 140 -118 74
-47 150 -102 169 -121 l33 -34 -31 -32 -30 -32 -73 45 c-70 42 -150 85 -104
55 134 -88 171 -116 174 -129 4 -22 -76 -129 -97 -129 -9 0 -59 25 -110 55
-51 30 -97 55 -102 55 -10 0 -138 -189 -163 -240 -16 -34 -16 -34 1 -10 10 13
30 37 45 52 15 15 30 34 35 42 5 10 33 17 86 22 88 8 103 0 139 -70 l20 -39
-53 39 -54 39 28 -34 c34 -41 30 -48 -14 -22 -48 30 -85 27 -121 -9 -27 -27
-29 -35 -26 -82 5 -59 25 -78 85 -78 41 0 115 62 106 88 -3 9 -3 14 2 10 4 -4
15 -2 23 5 13 10 14 6 9 -31 -6 -52 3 -48 13 5 l8 38 1 -40 c1 -54 -29 -102
-82 -125 -54 -25 -81 -25 -134 1 -46 22 -84 65 -101 114 l-10 30 -1 -28 c-1
-39 22 -80 66 -116 21 -17 32 -31 25 -31 -19 0 -158 77 -228 126 -33 23 -76
45 -95 49 -31 6 -34 4 -35 -20 -1 -17 5 -30 20 -39 11 -7 66 -39 121 -71 55
-33 134 -84 177 -115 65 -48 74 -58 60 -67 -13 -8 -34 -2 -94 28 -43 22 -80
39 -83 39 -3 0 -26 -28 -51 -62 -62 -84 -59 -99 36 -166 112 -79 133 -97 79
-67 -55 30 -102 32 -129 5 -28 -28 -25 -44 11 -74 42 -36 26 -32 -55 12 -65
35 -84 60 -41 54 20 -3 -49 42 -165 107 -64 37 -65 37 -62 76 2 21 8 47 13 58
13 23 7 31 -18 23 -11 -3 -27 -23 -37 -43 -17 -35 -17 -36 7 -62 14 -14 23
-31 21 -36 -3 -6 28 -32 68 -58 48 -31 66 -47 52 -47 -16 0 -21 -5 -19 -24 2
-13 -1 -29 -5 -36 -11 -18 -29 -3 -23 20 3 11 0 20 -6 20 -6 0 -11 -9 -11 -20
0 -16 -7 -20 -35 -20 -66 0 -129 38 -153 93 -30 69 -25 216 9 245 10 9 19 23
19 32 0 12 2 12 9 1 17 -26 195 107 233 174 11 20 11 20 -11 1 -17 -15 -21
-16 -21 -4 0 19 29 45 55 49 40 8 140 180 152 264 6 47 1 190 -7 190 -1 0 -5
22 -15 90 -1 11 -4 20 -5 20 -1 0 -3 14 -4 30 -1 17 -5 36 -9 43 -5 6 -5 17
-2 22 3 6 1 10 -5 10 -7 0 -10 7 -7 15 4 8 3 16 -1 19 -7 4 -9 287 -2 294 1 1
3 6 4 11 0 5 4 12 8 16 4 4 4 13 1 21 -3 8 0 14 6 14 6 0 8 7 5 15 -4 8 -1 15
5 15 6 0 8 7 5 15 -4 8 -1 15 5 15 6 0 11 9 11 20 0 11 4 20 9 20 5 0 12 11
15 25 4 14 14 34 24 45 9 12 17 24 17 28 -1 9 24 40 49 61 10 9 28 26 40 38
25 26 36 28 36 9z m505 -1272 c-43 -90 -116 -208 -197 -321 l-60 -82 -39 26
c-40 26 -49 36 -25 27 20 -8 87 74 168 205 69 113 180 249 186 230 2 -5 -13
-44 -33 -85z"/>
<path d="M1348 7034 l-98 -67 0 -88 c0 -48 -4 -89 -9 -91 -4 -1 -5 -11 -2 -21
5 -14 28 17 90 125 47 79 93 158 103 176 11 17 18 32 16 32 -2 0 -47 -30 -100
-66z"/>
<path d="M1049 6442 c-39 -41 -109 -137 -109 -151 0 -14 18 -34 40 -44 8 -4
26 -15 40 -24 25 -17 25 -17 10 2 -11 16 -11 17 0 8 20 -19 44 -16 74 8 37 29
33 42 -14 37 -43 -4 -52 5 -20 22 14 8 26 8 41 0 18 -10 20 -9 17 7 -2 14 -12
18 -41 16 -44 -2 -47 20 -3 25 36 5 56 -14 56 -52 0 -42 -24 -74 -62 -84 l-30
-8 39 -27 c21 -15 44 -27 50 -27 13 0 69 96 78 132 5 21 -3 33 -50 76 -31 29
-68 55 -81 58 -23 6 -24 8 -9 24 26 29 2 31 -26 2z"/>
<path d="M2465 7983 c-56 -7 -137 -34 -174 -57 -56 -36 -140 -131 -166 -189
-45 -98 -50 -238 -12 -328 22 -49 98 -148 142 -182 118 -93 328 -112 471 -42
150 74 250 269 223 439 -28 171 -182 321 -364 355 -59 11 -65 11 -120 4z m117
-173 c55 -16 117 -68 151 -128 26 -47 28 -56 17 -78 -8 -13 -22 -24 -33 -24
-18 0 -19 -5 -13 -47 3 -27 1 -55 -4 -63 -7 -11 -9 -5 -5 20 5 35 5 35 -5 5
-5 -16 -8 -36 -5 -43 3 -8 0 -10 -7 -6 -8 5 -9 2 -5 -9 3 -10 2 -16 -4 -14 -6
1 -18 -9 -27 -23 l-16 -25 23 20 24 20 -14 -23 c-8 -12 -20 -20 -27 -17 -7 3
-26 -2 -42 -10 -51 -26 -173 -14 -155 16 4 5 1 8 -6 7 -6 -2 -14 3 -16 10 -4
10 4 10 32 -2 47 -20 108 -20 145 -1 30 16 70 60 70 79 0 6 -9 -3 -19 -20 -21
-34 -75 -64 -115 -64 -48 0 -120 39 -103 56 3 3 24 0 48 -6 62 -17 103 -5 154
44 41 39 45 47 45 90 0 40 -5 52 -30 76 -152 142 -346 4 -260 -185 19 -42 20
-49 7 -62 -13 -13 -19 -10 -54 25 -63 63 -77 91 -76 147 0 62 27 116 85 172
67 66 151 87 240 63z"/>
<path d="M3052 7823 c2 -4 14 -36 27 -71 21 -56 26 -62 50 -60 23 3 26 0 24
-25 -1 -15 -9 -42 -17 -59 -9 -17 -16 -37 -16 -44 0 -14 74 -56 139 -79 44
-15 418 -197 714 -347 119 -60 222 -108 227 -106 5 2 -131 73 -303 158 -171
85 -314 158 -317 162 -3 3 -14 8 -25 10 -11 1 -22 6 -25 9 -3 3 -23 16 -45 27
-22 12 -33 21 -25 21 8 0 24 -6 34 -14 14 -11 23 -12 33 -4 7 6 20 9 28 5 9
-3 15 0 15 9 0 8 5 15 11 15 6 0 8 -8 4 -19 -4 -14 0 -23 15 -31 26 -14 43 -4
35 21 -4 11 -2 19 4 19 6 0 110 -50 231 -110 121 -61 220 -108 220 -105 0 2
-14 12 -30 20 -18 9 -28 21 -24 27 4 6 3 8 -4 5 -14 -9 -43 3 -36 14 3 5 -3 6
-12 2 -12 -4 -15 -3 -10 5 4 8 2 10 -7 6 -8 -3 -68 23 -133 56 -110 57 -166
93 -121 77 12 -5 16 -3 11 4 -12 20 36 -1 194 -84 85 -44 149 -83 143 -87 -7
-4 -1 -11 16 -18 25 -11 26 -11 10 2 -16 12 -16 15 -3 18 8 1 -89 57 -216 122
-142 73 -233 115 -236 108 -5 -16 -32 -15 -32 1 0 6 11 31 25 55 18 33 21 42
9 42 -8 0 -17 -6 -20 -14 -10 -27 -31 -26 -30 2 1 20 -5 27 -24 32 -17 4 -31
19 -43 45 -37 79 -106 126 -182 123 -24 0 -30 -2 -15 -5 14 -2 40 -6 58 -9 40
-6 100 -58 118 -101 19 -44 17 -79 -6 -142 -25 -69 -35 -80 -55 -60 -14 14
-14 19 0 52 30 73 14 131 -45 162 -37 19 -63 19 -100 0 -40 -21 -64 -68 -55
-111 3 -19 4 -34 1 -34 -18 0 -57 26 -61 41 -8 23 9 85 33 124 l19 30 -31 28
c-31 29 -151 95 -144 80z"/>
<path d="M4145 7290 c-15 -6 -16 -9 -4 -9 9 -1 23 -9 32 -19 21 -23 23 -54 3
-46 -8 3 -17 0 -22 -7 -4 -7 -3 -10 4 -5 20 12 22 -11 2 -29 -31 -28 -25 -44
15 -42 19 1 37 7 39 14 4 9 17 8 52 -5 48 -18 70 -48 60 -84 -3 -14 8 -25 45
-43 63 -32 76 -32 22 1 -24 14 -43 32 -43 41 0 13 2 14 17 2 15 -13 16 -12 8
6 -5 11 -9 34 -9 51 -1 19 -5 30 -12 27 -7 -2 -35 7 -63 21 -40 21 -51 32 -51
50 0 41 -10 58 -26 45 -11 -9 -14 -7 -14 9 0 15 -22 36 -33 31 -1 0 -11 -4
-22 -9z"/>
<path d="M4222 7015 c3 -3 95 -50 204 -104 187 -93 205 -100 290 -110 150 -18
206 -43 289 -125 97 -96 119 -145 117 -258 -1 -114 -29 -181 -93 -224 -67 -46
-76 -49 -53 -23 26 29 50 74 35 65 -14 -9 -25 37 -18 80 l6 36 -28 -39 c-15
-21 -37 -46 -49 -56 -11 -11 -19 -24 -16 -31 3 -7 -21 -22 -60 -37 -53 -21
-66 -23 -70 -12 -9 23 -51 11 -54 -14 -3 -20 1 -23 34 -23 30 0 34 -2 25 -14
-13 -15 3 -25 42 -27 16 0 12 -5 -18 -18 -38 -17 -39 -18 -15 -25 24 -8 24 -8
-10 -17 -19 -4 -51 -6 -70 -4 -32 4 -31 3 10 -10 l45 -15 -63 5 c-34 3 -75 8
-90 11 -26 7 -26 6 -11 -12 16 -17 139 -257 139 -269 0 -8 -30 -6 -30 3 0 4
-10 18 -21 32 l-21 25 16 -28 c19 -30 14 -47 -13 -47 -39 0 -118 -31 -151 -60
l-35 -30 35 19 c19 11 59 25 88 31 46 10 54 10 76 -7 l24 -19 -59 -13 c-101
-20 -152 -86 -165 -210 -4 -34 -10 -61 -13 -61 -4 0 -15 6 -26 13 -18 12 -27
8 -84 -35 -75 -56 -75 -63 -1 -13 59 40 85 44 93 15 3 -11 2 -20 -3 -20 -4 0
-23 -14 -41 -32 -22 -20 -26 -27 -12 -19 12 6 25 16 28 21 3 6 17 7 30 4 17
-4 37 3 72 27 26 18 49 33 50 34 2 1 -6 19 -17 40 -11 22 -20 56 -20 76 0 30
7 43 40 73 22 20 48 36 58 37 43 3 68 -4 87 -23 l20 -21 -25 17 c-54 36 -120
13 -140 -50 -22 -66 4 -124 56 -124 23 0 5 20 -21 24 -25 4 -27 47 -5 92 11
20 17 40 15 44 -3 4 10 6 27 4 36 -5 64 -26 71 -55 5 -17 2 -17 -18 5 -13 14
-30 26 -37 26 -27 0 -58 -31 -58 -58 l0 -26 16 22 c8 12 21 22 29 22 17 0 57
-49 49 -62 -3 -5 -11 -2 -18 7 -14 20 -51 16 -51 -5 0 -25 74 -21 135 7 108
49 161 63 239 63 101 0 133 -10 196 -64 63 -54 83 -95 66 -133 l-12 -26 -27
25 c-41 37 -55 46 -95 63 -44 18 -49 12 -7 -10 37 -19 101 -85 94 -96 -3 -5
-27 7 -54 25 -67 46 -112 60 -175 53 -92 -9 -172 -62 -210 -137 -31 -62 -34
-148 -6 -213 19 -43 76 -118 89 -115 4 1 27 -8 52 -20 47 -23 124 -29 150 -12
11 7 -2 10 -42 10 -52 0 -61 3 -98 38 -37 33 -70 79 -70 97 0 4 12 -8 27 -26
31 -37 78 -59 126 -59 49 0 121 27 147 56 13 13 29 24 36 24 7 0 20 22 29 50
15 44 19 49 36 40 56 -30 -43 -198 -137 -232 -34 -12 -45 -27 -21 -29 6 -1 -1
-4 -18 -8 -26 -6 -30 -11 -28 -38 3 -37 33 -12 -312 -265 -143 -105 -282 -210
-310 -232 -27 -23 -81 -64 -120 -90 -38 -26 -92 -65 -120 -87 -61 -49 -189
-137 -211 -146 -14 -5 -15 -3 -4 16 7 13 -5 6 -29 -18 -23 -23 -41 -49 -41
-60 0 -41 -200 -100 -236 -70 -9 8 -2 -10 15 -38 18 -29 31 -58 30 -65 -2 -7
7 -35 20 -63 33 -72 70 -206 79 -287 l9 -70 -77 4 -77 3 -6 -100 c-8 -127 -26
-195 -87 -320 -134 -275 -383 -446 -690 -471 -97 -8 -224 9 -310 43 -87 34
-211 116 -294 193 -76 72 -185 208 -206 259 l-13 33 -18 -33 c-10 -19 -18 -30
-19 -26 0 5 4 17 10 27 19 36 -47 69 -78 38 -7 -7 -12 -21 -13 -33 -2 -38 -60
159 -70 239 -10 72 -7 184 6 286 l5 35 -10 -30 c-15 -44 -40 -259 -40 -337 0
-44 -4 -68 -11 -68 -8 0 -10 -17 -6 -57 14 -128 53 -228 141 -359 50 -75 134
-174 101 -119 -10 16 -26 38 -35 48 -10 10 -29 39 -43 66 -20 36 -24 54 -19
76 8 29 8 29 65 -47 111 -148 246 -259 413 -338 76 -37 114 -70 79 -70 -8 0
-15 -4 -15 -10 0 -5 7 -10 15 -10 8 0 15 -4 15 -8 0 -16 -25 -32 -51 -32 -15
0 -32 -7 -39 -15 -8 -10 -9 -15 -2 -15 6 0 9 -6 6 -13 -3 -8 6 -14 27 -15 24
-2 30 1 25 13 -3 8 -1 15 4 15 6 0 10 -7 10 -15 0 -8 3 -14 8 -14 19 3 33 -2
28 -10 -3 -5 2 -12 11 -15 25 -10 3 -25 -37 -27 -55 -2 -70 -9 -70 -30 0 -10
5 -19 10 -19 6 0 10 -7 10 -15 0 -20 10 -19 26 3 12 15 13 14 14 -15 0 -31 -2
-33 -37 -33 -50 0 -30 -18 22 -20 108 -5 124 -1 169 37 24 21 19 15 -10 -13
-48 -46 -54 -55 -54 -93 l0 -41 -72 -1 -73 -2 69 -8 c90 -10 107 -32 31 -39
-29 -3 -56 -8 -59 -11 -3 -3 -10 -36 -15 -74 -6 -37 -15 -71 -20 -74 -20 -12
0 -50 27 -53 16 -2 28 -10 30 -21 3 -14 -4 -17 -37 -17 -22 0 -42 -4 -45 -8
-3 -5 -6 -32 -7 -60 -2 -47 -5 -52 -26 -52 -21 0 -23 4 -23 55 0 52 -1 55 -25
55 -24 0 -25 -3 -25 -55 0 -47 -3 -55 -19 -55 -17 0 -19 6 -14 59 5 55 4 58
-18 64 -50 14 -52 12 -47 -58 5 -51 3 -65 -8 -65 -10 0 -14 16 -14 60 0 54 -2
60 -21 60 -19 0 -20 -5 -18 -62 l3 -63 -42 -3 c-41 -3 -42 -4 -42 -41 0 -37 2
-39 37 -45 21 -3 77 -6 126 -6 51 0 87 -4 87 -10 0 -5 -7 -10 -15 -10 -11 0
-15 -13 -15 -52 0 -29 -3 -77 -7 -106 l-6 -53 -41 3 -41 3 -3 108 -3 107 -65
0 -65 0 3 -105 c3 -97 2 -104 -17 -109 -11 -3 -24 -6 -28 -6 -5 0 -7 57 -6
126 l2 126 -79 45 c-217 125 -634 374 -1475 882 l-126 76 -6 540 c-4 297 -8
1116 -9 1819 l-3 1279 136 86 136 86 11 79 c16 122 61 203 170 307 160 152
205 190 219 185 8 -3 11 -1 8 4 -4 6 3 26 15 45 29 46 34 76 12 68 -9 -4 -20
-11 -24 -17 -3 -5 -13 -11 -22 -12 -8 -1 -74 -42 -146 -91 -72 -48 -170 -113
-218 -144 -48 -30 -157 -100 -242 -154 -85 -54 -208 -135 -272 -179 l-117 -81
-4 -2003 -3 -2003 80 -48 c45 -26 311 -186 591 -356 281 -169 708 -427 950
-572 242 -145 446 -271 453 -281 11 -14 10 -18 -5 -24 -61 -23 -60 -21 -25
-27 l33 -6 -31 -13 c-25 -11 -30 -19 -30 -48 0 -29 3 -34 24 -34 13 0 26 -4
28 -9 2 -4 20 -11 41 -15 28 -5 39 -3 43 7 6 17 50 11 58 -9 4 -9 -2 -14 -15
-14 -14 0 -19 -5 -16 -14 9 -22 -14 -26 -136 -26 l-112 0 3 -44 c4 -42 5 -44
40 -50 21 -3 168 -10 327 -16 334 -13 294 -3 511 -140 69 -44 127 -80 129 -80
3 0 53 -30 112 -66 59 -37 181 -111 271 -165 l162 -98 88 55 c48 31 103 66
122 79 19 12 94 58 165 102 72 44 195 120 275 170 229 142 180 129 529 143
168 6 315 16 327 20 20 8 22 13 14 39 -4 16 -4 33 0 37 5 5 -44 9 -109 8 -115
-1 -118 0 -113 20 3 11 7 15 10 8 5 -15 68 -16 78 0 4 6 3 8 -2 5 -6 -3 -15 3
-22 14 -11 17 -9 19 17 19 43 0 61 10 62 34 1 19 2 18 8 -4 7 -24 7 -24 14 9
9 44 -1 53 -61 61 l-47 7 43 8 c43 8 54 31 13 29 -49 -2 -17 33 87 94 159 94
594 355 777 467 329 201 409 250 790 482 l390 238 2 675 c0 371 -1 988 -5
1371 l-5 697 -31 -5 c-17 -3 -28 -1 -23 3 4 4 17 9 29 11 12 2 46 11 77 20 31
9 58 18 61 18 17 5 96 38 150 64 108 50 292 213 336 296 11 22 30 56 40 75 15
27 50 122 59 160 3 15 19 98 21 115 5 33 4 157 -1 203 -6 62 -46 202 -56 202
-5 0 -6 7 -3 15 4 8 2 15 -4 15 -5 0 -12 8 -15 18 -7 20 -35 67 -57 94 -33 41
-143 148 -151 148 -5 0 -9 7 -9 15 0 8 -7 15 -15 15 -9 0 -15 9 -15 25 0 26
-15 34 -24 13 -2 -7 -4 -2 -3 12 1 17 -3 25 -15 25 -9 0 -20 4 -24 8 -15 14
-23 6 -22 -23 1 -17 -6 -38 -14 -48 -21 -23 -60 -93 -55 -98 2 -3 10 2 17 11
15 19 30 19 30 2 0 -12 -71 -77 -85 -77 -14 0 -75 46 -75 57 0 20 20 26 38 10
9 -8 26 -17 37 -21 18 -5 20 -2 19 29 -1 19 3 33 9 32 14 -3 68 101 56 108
-13 9 -30 -4 -23 -17 4 -7 2 -8 -4 -4 -7 4 -9 18 -6 32 4 14 2 24 -5 24 -6 0
-11 -9 -11 -21 0 -12 -5 -19 -12 -16 -8 2 -12 15 -10 30 2 17 -1 27 -10 27 -7
0 -23 3 -35 6 -18 5 -21 3 -16 -14 2 -11 0 -23 -6 -26 -10 -7 -16 7 -12 28 1
5 -1 16 -5 25 -5 13 -8 11 -13 -8 -4 -14 -13 -27 -20 -29 -10 -3 -11 3 -6 27
4 20 3 31 -4 31 -6 0 -11 -9 -11 -19 0 -33 -28 -33 -35 0 -4 16 -11 29 -16 29
-6 0 -8 -9 -4 -19 3 -11 1 -22 -5 -26 -6 -4 -10 6 -10 24 0 17 -5 31 -11 31
-6 0 -8 -8 -4 -19 3 -11 0 -23 -7 -27 -6 -4 -14 -2 -16 4 -2 8 -9 9 -22 2 -10
-6 -21 -7 -24 -2 -5 9 -47 8 -63 -1 -7 -4 -14 -3 -18 2 -3 7 -15 7 -30 1 -13
-5 -27 -6 -29 -1 -8 12 -66 0 -66 -13 0 -7 15 -27 34 -45 31 -30 40 -33 112
-37 44 -3 87 -5 96 -5 10 0 20 -5 23 -10 4 -5 10 -7 15 -4 4 3 13 -2 20 -10
11 -13 4 -15 -51 -16 -35 -1 -70 -1 -76 0 -7 1 -13 -6 -13 -16 0 -15 -2 -16
-11 -3 -8 12 -10 12 -7 -4 3 -21 31 -31 102 -40 22 -3 65 -10 95 -15 29 -6 56
-11 58 -11 2 0 2 -4 -1 -9 -3 -4 30 -31 74 -60 124 -80 235 -234 200 -276 -7
-8 -17 -12 -23 -8 -6 4 -8 0 -4 -10 4 -11 1 -17 -8 -17 -18 0 -17 6 -20 -105
-4 -106 -21 -159 -75 -231 -50 -66 -121 -118 -189 -138 -78 -23 -100 -22 -94
7 4 18 3 19 -7 7 -10 -13 -11 -13 -7 0 2 9 23 18 56 22 127 19 199 98 281 311
20 51 21 63 10 100 -18 65 -64 131 -122 178 -61 49 -156 94 -212 103 l-38 5 5
-32 c4 -26 1 -21 -19 21 -13 28 -26 52 -30 52 -3 0 -3 -8 1 -17 31 -75 60
-256 50 -312 -6 -36 -7 -37 -42 -33 -28 4 -32 6 -19 14 9 5 20 7 24 4 12 -7
13 34 1 56 -11 21 -42 24 -57 6 -5 -7 -13 -35 -17 -62 -4 -27 -15 -56 -24 -65
-9 -9 -25 -50 -35 -91 -10 -41 -26 -91 -35 -110 -45 -100 -200 -257 -303 -308
-90 -44 -167 -63 -289 -69 -216 -12 -357 46 -550 223 -61 56 -61 56 -73 33
-12 -26 -38 -32 -42 -11 -1 7 0 8 3 2 8 -17 19 -11 32 17 11 23 10 29 -5 40
-25 18 -31 17 -60 -12 -21 -21 -23 -28 -14 -46 24 -43 -27 -1 -60 51 -45 69
-78 171 -95 292 -20 133 -26 151 -19 58 8 -108 31 -214 67 -305 28 -70 30 -81
15 -81 -9 0 -16 3 -15 6 1 3 -11 37 -25 75 -42 111 -47 140 -50 307 -2 87 -5
158 -7 158 -2 0 -27 -17 -55 -39 -28 -21 -70 -50 -92 -64 -80 -50 -110 -116
-80 -179 31 -66 125 -90 180 -47 l26 20 0 -20 c0 -59 -106 -65 -192 -10 -61
40 -78 64 -78 113 0 57 32 92 172 187 68 45 126 87 130 93 3 5 9 25 13 43 5
28 -2 47 -37 111 -23 42 -41 84 -39 92 2 8 9 47 16 85 8 39 14 57 14 40 2 -49
77 -186 93 -169 3 2 3 24 1 48 l-5 43 31 -5 c19 -2 31 0 31 7 0 6 -6 11 -14
11 -8 0 -28 12 -43 26 l-28 26 29 -21 c29 -21 76 -29 76 -12 0 5 -8 7 -18 4
-28 -7 -82 43 -82 76 0 61 76 82 124 35 14 -15 26 -33 26 -40 0 -12 4 -12 20
-2 28 18 25 42 -11 77 -42 43 -97 57 -162 44 -29 -6 -53 -7 -55 -3 -13 34 -71
95 -114 120 -102 58 -246 108 -349 119 -104 12 -132 22 -341 127 -112 55 -164
77 -146 59z m3198 -927 c126 -199 137 -449 29 -661 -62 -122 -123 -188 -251
-273 -65 -43 -201 -104 -232 -104 -22 0 -21 39 2 46 123 40 222 103 327 209
93 92 130 156 160 273 12 45 26 84 31 85 11 3 7 89 -5 96 -5 3 -14 40 -21 81
-15 89 -32 137 -75 205 -37 59 -47 84 -39 96 13 22 37 5 74 -53z m-30 -103
c17 -33 37 -94 44 -135 14 -72 14 -75 -6 -92 -30 -26 -38 -22 -38 16 0 64 -20
141 -56 215 -27 55 -33 75 -24 81 7 4 9 14 6 21 -4 8 4 1 19 -16 14 -16 39
-57 55 -90z m26 -300 c-5 -19 -2 -25 10 -25 37 0 -6 -157 -68 -245 -61 -88
-73 -98 -97 -84 -11 8 -21 17 -21 21 0 4 22 36 49 72 48 64 71 115 91 211 14
67 17 75 31 75 7 0 9 -9 5 -25z m-235 -405 c10 -6 19 -16 19 -23 0 -22 -151
-104 -221 -121 -22 -5 -28 -2 -32 16 -4 12 -4 24 -1 27 4 4 188 99 212 110 2
0 12 -4 23 -9z m-571 -430 c-6 -3 -12 -472 -15 -1260 l-7 -1255 -51 -31 c-207
-125 -566 -344 -862 -525 -192 -118 -441 -268 -552 -334 l-202 -120 -3 -120
-3 -120 -25 0 c-25 0 -25 1 -28 95 -1 52 -5 101 -7 108 -5 13 -54 16 -92 6
-21 -6 -23 -12 -25 -108 l-3 -101 -40 0 -40 0 -3 103 c-2 82 -6 102 -17 102
-8 0 -15 5 -15 10 0 6 43 10 108 10 59 0 112 4 118 8 17 10 22 77 7 90 -15 15
-26 16 -18 2 4 -6 -8 -10 -29 -10 l-36 0 0 65 c0 59 -2 65 -20 65 -12 0 -20
-6 -19 -13 1 -6 1 -33 0 -59 -1 -37 -5 -48 -17 -48 -13 0 -15 9 -9 65 l7 65
-31 0 -31 0 0 -65 c0 -59 -2 -65 -21 -65 -19 0 -21 5 -17 55 2 46 0 55 -13 55
-21 0 -29 -20 -29 -71 0 -37 -2 -39 -30 -39 -28 0 -29 1 -32 57 l-3 58 -32 -3
c-31 -3 -33 -1 -33 26 0 23 7 33 31 44 l31 15 -45 7 c-52 8 -57 16 -57 91 0
53 -9 70 -43 76 -26 6 -26 23 1 27 30 5 28 22 -3 22 -20 0 -25 6 -30 38 -4 20
-9 45 -12 55 -4 15 5 17 84 18 87 1 182 15 122 18 -15 0 -32 8 -39 16 -7 8
-22 15 -33 15 -38 0 -9 11 34 13 41 2 44 4 47 32 2 23 0 27 -7 15 -9 -13 -11
-13 -11 2 0 11 -7 17 -17 16 -55 -4 -73 2 -73 26 0 17 6 25 18 25 9 0 31 2 47
6 17 3 41 6 55 8 32 3 37 29 9 42 -12 6 -21 14 -21 19 1 14 122 73 177 85 28
7 84 28 125 48 41 21 79 39 84 41 33 16 -80 -72 -119 -93 -57 -30 -21 -23 40
8 107 54 216 225 236 371 16 117 -11 245 -65 311 -9 11 -5 -2 9 -29 14 -27 25
-60 25 -74 0 -25 -1 -25 -14 -7 -12 16 -16 17 -30 6 -9 -7 -16 -20 -16 -27 0
-26 -15 -14 -34 29 -31 66 -121 150 -191 177 -89 35 -203 34 -270 -2 -65 -34
-137 -109 -171 -177 -22 -45 -26 -67 -26 -130 0 -58 -2 -71 -10 -55 -7 16 -16
20 -36 16 -27 -5 -27 -5 -8 17 11 11 14 21 8 21 -18 0 -14 18 6 24 9 3 -7 4
-35 2 -29 -1 -53 1 -53 6 0 5 -7 3 -15 -6 -8 -8 -15 -23 -15 -33 0 -13 -3 -14
-8 -5 -6 9 -18 7 -50 -8 -22 -11 -48 -20 -56 -20 -8 0 -18 -5 -21 -10 -4 -6
-11 -8 -16 -5 -5 4 -9 1 -9 -5 0 -6 -4 -8 -10 -5 -6 4 -11 -8 -12 -27 -2 -54
-15 166 -17 302 -2 129 -13 190 -24 140 -4 -14 -8 -144 -10 -290 -2 -198 -6
-271 -16 -290 -8 -13 -15 -40 -17 -60 -15 -171 -22 -209 -50 -259 -83 -154
-251 -226 -397 -171 -52 20 -139 80 -94 66 49 -16 156 -28 203 -23 106 11 181
60 254 168 68 98 70 117 72 544 1 209 1 447 -1 529 l-2 150 64 -57 c36 -31 70
-57 75 -57 6 0 47 -34 91 -76 75 -71 101 -86 66 -40 -8 11 -15 24 -15 29 0 5
38 7 88 5 76 -3 97 -9 162 -41 73 -36 76 -36 120 -23 56 17 55 34 -2 93 -43
44 -145 93 -193 93 -14 0 -25 5 -25 10 0 13 -7 13 78 -10 91 -25 141 -58 190
-124 19 -26 22 -27 22 -9 0 35 -82 106 -157 137 -84 34 -233 44 -328 21 -99
-24 -131 -14 -43 14 45 15 97 70 129 139 16 33 30 51 42 52 24 0 74 27 79 41
2 6 19 17 38 23 27 9 34 16 33 34 -2 17 2 22 22 22 17 0 25 6 25 18 0 9 19 29
44 45 24 15 82 57 128 93 45 36 143 110 215 165 73 55 135 105 138 110 4 5 13
5 24 -1 24 -12 31 -4 31 37 0 18 3 32 8 32 20 -3 31 3 37 20 3 11 16 21 28 23
18 2 22 9 21 36 -1 17 2 32 8 32 14 0 158 120 158 132 0 6 9 8 21 5 30 -8 101
58 79 73 -13 9 -13 11 0 21 11 8 5 9 -25 4 -22 -3 -49 -8 -60 -11 -18 -4 -18
-4 -3 6 9 6 51 15 93 20 42 5 96 18 119 29 84 37 153 117 170 197 9 39 36 41
36 3 0 -53 8 -59 71 -59 33 0 59 4 59 10 0 18 20 11 21 -7 0 -11 3 -13 6 -5 2
6 9 10 14 6 22 -13 50 -12 56 2 4 12 8 13 13 4 10 -16 30 -4 30 16 0 15 42 18
65 4 6 -4 16 -5 23 -4 6 1 28 2 48 3 27 1 37 6 41 21 8 31 19 33 267 45 66 3
121 7 123 9 2 1 26 3 53 2 28 0 46 -2 40 -6z m-1765 -431 c-4 -5 -132 -103
-285 -217 -419 -312 -503 -373 -506 -369 -8 8 371 295 616 467 58 41 121 87
140 102 37 30 45 34 35 17z m11 -115 c-1 -35 -7 -41 -216 -197 -118 -89 -236
-181 -262 -205 -27 -25 -49 -41 -50 -36 0 5 -1 16 -2 24 -1 8 -10 15 -20 15
-28 0 -30 20 -4 32 13 6 61 40 108 75 186 140 406 304 425 315 11 6 20 12 21
12 0 1 0 -15 0 -35z m34 -71 c0 -5 -24 -27 -53 -50 -93 -76 -478 -373 -483
-373 -2 0 -4 6 -4 14 0 23 502 416 532 416 4 0 8 -3 8 -7z m-912 -2037 c9 -77
-72 -184 -185 -244 -72 -38 -196 -72 -263 -72 l-47 0 7 -39 c6 -32 4 -41 -9
-46 -9 -4 -136 -3 -282 1 l-267 7 21 34 c11 19 31 40 44 46 12 5 23 14 23 18
0 4 12 12 28 18 15 7 43 20 62 31 19 10 45 19 58 20 22 0 22 1 6 25 -9 14 -15
28 -12 30 2 2 31 -9 63 -24 96 -46 160 -61 259 -61 157 0 288 46 375 130 42
41 80 108 81 143 0 31 35 16 38 -17z m-534 -428 c165 -1 270 -3 231 -5 -90 -4
-115 -10 -115 -28 0 -8 -4 -15 -10 -15 -5 0 -10 5 -10 10 0 6 -16 10 -35 10
-29 0 -37 -5 -46 -26 -13 -36 -3 -63 28 -70 34 -9 56 6 64 42 6 28 7 28 8 4 0
-14 8 -36 17 -48 14 -20 14 -23 -3 -30 -22 -9 -672 -9 -694 0 -15 6 -15 12 -3
59 15 57 28 80 18 32 -11 -57 64 -80 88 -27 15 32 -13 74 -47 74 -14 0 -25 4
-25 10 0 9 150 19 204 13 16 -2 164 -4 330 -5z m-299 -376 c11 -1 254 1 540 3
286 1 511 1 501 -2 -15 -4 -16 -7 -5 -14 9 -6 -1 -9 -31 -10 -30 -1 -36 -3
-17 -6 67 -10 14 -21 -138 -28 -296 -13 -289 -22 20 -26 160 -2 343 -2 408 0
81 2 117 0 117 -8 0 -8 -105 -11 -372 -11 -205 0 -410 -3 -454 -6 l-81 -7 -12
-51 c-7 -28 -13 -69 -14 -91 -2 -34 -6 -41 -27 -46 -33 -9 -770 -11 -846 -3
l-59 6 -3 92 c-2 50 -6 94 -8 97 -2 4 -59 10 -126 15 l-123 9 147 5 c80 3 150
8 154 13 4 4 -4 7 -17 7 -26 0 -59 48 -36 52 7 0 -8 4 -33 8 -35 6 171 6 515
2z m747 -372 c298 0 437 -3 433 -10 -4 -6 -12 -10 -18 -9 -30 4 -690 -4 -670
-8 19 -4 20 -8 12 -36 -18 -61 -26 -117 -18 -123 5 -3 4 -14 -1 -25 -6 -11 -9
-23 -6 -27 2 -4 1 -26 -4 -50 -6 -33 -4 -42 6 -42 8 0 14 -4 14 -10 0 -6 -106
-11 -282 -13 -180 -1 -87 -4 252 -6 294 -2 576 -6 625 -10 50 -3 -288 -7 -750
-9 -462 -2 -837 0 -833 3 3 4 37 10 75 14 l68 8 -72 2 -73 1 0 170 c0 107 -4
170 -10 170 -6 0 -11 -65 -12 -172 l-1 -173 -9 170 c-6 110 -14 172 -21 177
-14 9 483 16 707 11 82 -1 347 -3 588 -3z m-1381 -126 c10 -13 8 -13 -15 -4
-42 15 -83 -10 -92 -57 -8 -45 0 -58 62 -101 64 -44 68 -62 14 -62 -25 0 -39
-4 -35 -10 4 -6 -12 -10 -39 -10 l-46 0 0 129 0 130 69 0 c49 0 73 -4 82 -15z
m1183 -362 c-22 -20 -192 -122 -203 -122 -10 0 -134 74 -196 116 -17 12 11 14
195 14 118 0 210 -4 204 -8z"/>
<path d="M4698 6636 c-21 -7 -50 -22 -65 -32 -16 -10 -33 -17 -40 -16 -6 1
-38 -34 -72 -78 -33 -44 -52 -76 -41 -70 10 5 28 22 39 36 l21 27 0 -30 c0
-38 25 -123 44 -148 14 -19 15 -19 9 5 l-6 25 24 -21 c34 -30 54 -41 44 -24
-5 8 7 4 27 -8 65 -40 133 -27 198 38 22 22 40 34 40 28 1 -7 8 -1 16 15 8 15
19 27 24 27 5 0 12 16 16 35 5 30 1 43 -32 92 -22 31 -55 66 -74 79 -45 29
-123 39 -172 20z m112 -111 c42 -22 63 -68 58 -126 -4 -33 -2 -46 6 -42 6 3 0
-6 -14 -20 -23 -24 -29 -25 -84 -17 -67 10 -91 28 -110 85 -32 93 55 166 144
120z"/>
<path d="M4705 6475 c-54 -53 -15 -135 64 -135 32 0 44 6 65 31 33 39 33 69
-2 102 -38 36 -93 37 -127 2z"/>
<path d="M5948 6530 c-133 -23 -232 -68 -338 -153 -151 -122 -230 -290 -231
-490 -1 -91 28 -234 60 -295 55 -104 203 -245 316 -301 149 -73 380 -79 545
-15 126 49 278 186 341 309 54 103 74 197 73 335 -1 98 -5 125 -27 181 -37 97
-70 144 -163 236 -161 158 -369 228 -576 193z m-47 -240 c25 -14 24 -24 -3
-39 -21 -11 -21 -11 7 -5 17 3 75 8 130 11 86 4 108 2 157 -17 61 -23 137 -88
183 -159 28 -42 29 -40 -14 -87 -8 -9 -22 -13 -32 -11 -11 3 -19 0 -19 -6 0
-6 -19 9 -42 35 -53 56 -132 88 -219 88 -104 0 -186 -56 -232 -159 -34 -78 -9
-199 55 -259 32 -29 126 -62 180 -62 87 0 195 77 227 160 7 19 18 45 23 57 6
12 8 38 5 58 -3 21 -2 33 4 30 14 -9 11 -95 -6 -151 -18 -61 -62 -116 -123
-152 -40 -23 -58 -27 -122 -27 -58 0 -84 5 -115 22 -96 52 -151 134 -162 239
-6 59 -20 77 -55 72 -16 -2 -26 -13 -33 -35 -11 -39 -25 -43 -25 -8 0 16 -6
25 -15 25 -25 0 -18 59 14 125 35 70 48 86 116 140 69 54 72 57 54 50 -11 -4
-22 3 -33 20 -10 15 -16 28 -14 29 31 26 77 32 109 16z m339 -531 c0 -24 -86
-97 -125 -108 -62 -16 -147 10 -190 60 -11 12 -14 19 -6 14 11 -6 13 -4 7 10
-6 18 -6 18 11 2 27 -24 88 -47 124 -47 36 0 113 41 123 65 6 17 56 21 56 4z"/>
<path d="M970 5662 c0 -7 -4 -10 -10 -7 -5 3 -10 1 -10 -5 0 -6 14 -13 30 -17
17 -3 33 -10 37 -16 4 -6 -4 -8 -21 -3 -18 4 -26 2 -26 -6 0 -9 -4 -8 -11 2
-9 13 -10 13 -6 0 2 -10 19 -16 50 -18 52 -3 65 -26 25 -42 -16 -6 28 -9 132
-10 272 -4 245 -6 248 24 3 25 14 30 60 29 6 -1 12 7 12 18 0 10 8 23 18 28
10 6 12 11 4 11 -7 0 -10 5 -7 10 7 12 -25 13 -312 15 -172 0 -213 -2 -213
-13z"/>
<path d="M1163 5470 c-31 -12 -45 -44 -41 -93 l3 -42 80 -3 c44 -1 86 2 94 7
18 12 16 76 -3 106 -21 31 -87 44 -133 25z"/>
<path d="M633 5385 c-18 -8 -33 -19 -33 -25 0 -6 -5 -8 -11 -5 -12 8 -55 -35
-64 -65 -10 -32 -25 -23 -15 10 10 35 -4 40 -21 8 -16 -30 -8 -341 10 -362 17
-20 31 -20 31 -1 0 8 7 15 15 15 14 0 21 57 15 129 -1 15 3 22 12 19 18 -6 23
-124 6 -146 -12 -16 -11 -16 7 0 30 24 92 39 122 27 13 -5 26 -9 29 -9 2 0 4
25 4 55 0 54 0 55 29 55 17 0 33 5 36 10 3 6 14 10 23 10 10 0 22 10 27 23 15
33 73 36 97 5 24 -31 23 -43 -2 -18 -33 33 -70 19 -70 -26 0 -40 53 -46 89 -9
13 14 29 25 36 25 9 0 12 9 9 25 -4 20 0 25 17 25 12 0 27 7 33 15 14 19 229
34 240 16 5 -8 -23 -11 -102 -11 l-110 0 11 -25 c11 -24 16 -25 99 -25 98 0
141 11 132 35 -5 12 2 15 29 15 29 0 36 -4 39 -22 3 -20 8 -22 37 -20 24 3 32
0 29 -10 -3 -7 -12 -12 -22 -10 -9 2 -16 -2 -16 -8 0 -24 40 -8 60 25 29 48
65 48 103 0 20 -25 36 -35 56 -35 24 0 30 -6 41 -40 7 -22 17 -40 22 -40 5 0
4 -9 -2 -21 -15 -28 -7 -33 29 -21 31 11 64 6 141 -21 34 -12 46 -13 52 -4 11
18 10 347 -2 347 -5 0 -7 7 -3 16 5 13 2 15 -15 10 -17 -6 -24 -2 -33 18 -7
14 -18 28 -27 31 -12 4 -13 3 -2 -10 8 -10 -5 -6 -36 10 -64 33 -112 26 -158
-21 -19 -20 -43 -34 -57 -34 -31 0 -53 -15 -45 -29 11 -16 -2 -48 -22 -56 -14
-5 -15 -4 -4 6 6 7 12 26 12 41 0 36 -36 56 -69 39 -24 -13 -29 -59 -9 -79 10
-10 6 -10 -19 -2 -19 7 -110 10 -250 8 l-219 -3 4 28 c7 46 -11 57 -99 57 -43
0 -81 5 -84 10 -12 20 -85 60 -107 60 -13 -1 -38 -7 -55 -15z m101 -58 c22
-16 36 -117 17 -117 -7 0 -9 -5 -6 -11 4 -5 -4 -19 -17 -30 -32 -29 -84 -19
-120 21 -38 41 -37 83 1 121 33 32 92 40 125 16z m1079 -7 c53 -42 39 -123
-27 -154 -56 -26 -109 -2 -121 55 -13 57 -13 100 -1 96 7 -3 20 1 31 9 28 20
88 17 118 -6z"/>
<path d="M1700 5298 c-42 -46 -12 -121 49 -121 67 0 98 77 49 123 -29 26 -72
26 -98 -2z"/>
<path d="M3856 5049 c-8 -12 -18 -19 -23 -16 -5 3 -18 -8 -28 -24 -11 -16 -24
-29 -29 -29 -5 0 -19 -11 -32 -25 -13 -14 -27 -25 -32 -25 -5 0 -21 -11 -36
-25 -15 -14 -31 -25 -35 -25 -5 0 -12 -7 -15 -16 -3 -8 -10 -12 -16 -9 -5 3
-10 2 -10 -3 0 -5 -10 -12 -22 -15 -12 -4 -19 -10 -15 -14 12 -11 37 -12 37
-2 0 6 4 8 10 4 5 -3 7 -12 4 -20 -5 -13 -10 -13 -40 0 -31 13 -36 13 -40 0
-4 -8 -10 -12 -15 -9 -5 3 -9 0 -9 -5 0 -6 -4 -11 -10 -11 -5 0 -27 -16 -47
-36 -32 -30 -43 -35 -71 -30 -24 4 -38 -1 -57 -18 -14 -13 -25 -28 -25 -33 0
-5 -30 -33 -66 -62 -48 -39 -63 -56 -55 -64 15 -15 14 -27 -3 -27 -7 0 -20 -8
-27 -17 -12 -15 -12 -16 3 -10 11 4 15 2 12 -7 -3 -8 -16 -11 -32 -9 -26 4
-26 4 -7 -11 41 -31 45 -37 45 -64 0 -27 0 -27 -73 -27 -65 0 -78 -3 -110 -28
-38 -29 -71 -80 -65 -99 3 -7 14 5 27 25 26 43 34 47 21 11 -12 -32 -12 -34 0
-34 6 0 10 6 10 14 0 8 14 26 31 40 42 36 96 35 135 -1 24 -23 26 -28 12 -31
-10 -2 -24 1 -33 6 -28 15 -72 2 -84 -25 -16 -35 -8 -40 13 -8 9 14 24 25 33
25 13 0 12 -5 -7 -25 -13 -14 -18 -25 -12 -25 6 0 14 4 17 10 3 5 14 14 24 20
14 7 23 4 37 -13 10 -12 12 -16 4 -9 -20 17 -29 15 -23 -7 9 -35 33 -33 54 4
24 40 34 46 18 11 -8 -17 -8 -29 0 -45 18 -33 41 -27 41 12 1 52 18 111 55
191 32 67 90 136 115 136 5 0 11 9 15 20 3 11 10 19 15 17 17 -4 426 296 441
325 5 10 13 16 17 14 5 -3 14 -1 21 3 11 7 10 14 -4 35 -10 14 -21 26 -26 26
-16 0 -37 54 -28 75 4 11 8 15 8 10 1 -6 10 -16 21 -23 17 -11 20 -10 20 8 0
10 -9 24 -19 30 -16 8 -23 6 -35 -11z"/>
<path d="M628 4950 c-33 -20 -30 -121 5 -155 7 -7 8 -4 3 10 -6 16 -5 18 5 8
17 -17 60 -16 83 0 16 11 18 24 14 70 -4 47 -2 57 11 57 14 0 14 2 1 10 -19
13 -100 12 -122 0z"/>
<path d="M1673 4915 c-19 -19 -33 -28 -29 -20 15 41 -27 60 -57 27 -22 -24
-23 -84 -2 -76 16 7 45 -12 45 -28 0 -6 -13 -8 -30 -6 l-30 5 0 -104 c0 -91 2
-103 18 -103 16 -1 16 -1 0 -11 -22 -12 -24 -62 -3 -79 8 -6 20 -8 26 -4 9 5
10 2 4 -12 -22 -50 -17 -88 16 -134 18 -25 24 -38 14 -30 -17 14 -18 13 -13
-13 4 -21 -3 -36 -31 -70 -20 -23 -59 -70 -86 -105 -35 -45 -54 -62 -67 -59
-9 3 -23 -2 -30 -10 -10 -13 -8 -19 17 -39 l29 -23 81 87 c182 196 170 180
150 202 -18 19 -17 20 5 20 28 0 100 70 100 99 0 11 -12 35 -28 52 -21 23 -37
31 -64 32 -43 1 -65 -14 -78 -57 -9 -29 -9 -29 -4 9 3 25 14 48 30 63 15 13
20 22 12 22 -8 0 -20 -6 -27 -12 -10 -11 -12 -9 -9 7 3 18 10 20 58 17 40 -2
51 0 40 7 -8 6 -23 11 -32 11 -16 0 -18 11 -18 95 0 78 -4 104 -21 138 l-21
42 24 -22 c34 -32 91 -31 123 2 33 32 32 68 -1 94 -39 31 -71 26 -111 -14z"/>
<path d="M777 4933 c-3 -5 -8 -33 -12 -63 -4 -30 -12 -61 -19 -69 -10 -13 -10
-216 0 -233 3 -4 -9 -3 -25 3 -28 10 -30 13 -36 87 -3 42 -7 88 -8 101 -1 14
-9 26 -17 29 -12 4 -13 2 -2 -9 7 -7 12 -39 12 -73 0 -108 8 -135 46 -151 37
-15 84 -58 84 -75 0 -6 -13 -1 -29 11 -22 16 -38 20 -61 16 -23 -5 -29 -4 -24
6 4 6 -3 3 -15 -8 -13 -11 -27 -29 -31 -40 -6 -15 -9 -8 -14 30 -7 46 -74 322
-96 390 -27 86 4 -86 41 -220 22 -82 43 -177 46 -210 6 -65 34 -108 78 -119
17 -4 22 -11 18 -26 -5 -19 31 -65 189 -239 l49 -54 26 26 c30 30 25 60 -9 55
-17 -2 -39 20 -110 112 l-88 115 22 19 23 19 -23 -7 c-22 -7 -22 -7 3 20 35
37 40 68 22 115 l-15 39 26 -3 c15 -1 28 1 30 6 1 4 2 86 2 182 l0 176 -26 24
c-27 25 -49 32 -57 18z"/>
<path d="M4391 4910 c-68 -31 -269 -180 -243 -180 6 0 14 4 17 10 3 5 16 15
28 21 42 21 -58 -60 -120 -96 -34 -20 -64 -42 -66 -49 -9 -22 12 -107 35 -149
15 -26 39 -49 66 -63 23 -12 56 -34 73 -48 17 -14 38 -26 47 -26 13 1 11 4 -6
14 -23 12 -23 13 15 24 21 7 47 19 58 27 16 13 18 19 7 35 -16 26 -16 25 14
45 22 14 30 15 49 5 26 -14 55 -2 120 50 36 29 77 52 97 54 4 1 21 16 37 34
35 38 51 41 51 10 0 -19 2 -20 10 -8 20 31 9 69 -41 144 -29 42 -70 96 -94
121 -48 52 -81 58 -154 25z"/>
<path d="M3700 4406 c-160 -43 -251 -199 -195 -333 34 -80 114 -154 167 -153
21 1 20 2 -7 14 -34 15 -56 39 -73 80 l-13 28 33 -27 c81 -68 181 -73 245 -13
13 12 33 22 45 23 16 1 30 15 48 48 15 28 32 47 43 47 9 0 17 -5 17 -11 0 -5
5 -7 11 -3 7 4 9 24 6 55 -20 170 -176 287 -327 245z m121 -147 c26 -19 57
-84 45 -96 -5 -5 -30 45 -28 57 0 3 -7 6 -16 7 -9 1 -36 5 -60 9 -37 6 -46 3
-67 -16 -56 -52 -54 -129 4 -163 54 -32 135 -11 147 38 8 31 30 33 37 3 16
-60 -87 -133 -156 -110 l-32 11 32 -5 c48 -8 100 13 130 52 35 47 25 52 -17 9
-26 -27 -42 -35 -68 -35 -48 0 -93 24 -120 65 -21 29 -23 40 -16 77 5 24 8 48
7 55 0 7 4 11 11 10 6 -1 10 6 8 16 -2 9 -2 17 0 17 2 0 21 7 43 15 45 17 77
12 116 -16z"/>
<path d="M2735 4013 c-265 -35 -493 -199 -611 -438 -59 -121 -74 -186 -74
-323 0 -195 44 -327 158 -478 173 -229 371 -334 629 -334 314 0 572 158 717
440 66 128 87 206 93 342 10 218 -46 379 -183 527 -169 181 -376 273 -609 269
-49 0 -103 -3 -120 -5z m265 -255 c25 -6 63 -20 85 -31 46 -23 161 -130 181
-169 15 -28 19 -107 7 -109 -42 -4 -79 -4 -83 1 -3 3 -32 28 -65 54 -97 79
-130 90 -270 90 -113 1 -123 -1 -174 -28 -73 -38 -156 -118 -186 -180 -14 -28
-30 -88 -37 -132 l-12 -82 -15 32 c-20 40 -57 47 -70 14 -4 -13 -6 -28 -4 -34
2 -7 0 -15 -6 -19 -18 -11 -12 161 8 248 10 42 17 77 15 77 -1 0 20 33 47 73
77 112 197 189 319 204 80 10 200 6 260 -9z"/>
</g>
</svg>
